<svg xmlns="http://www.w3.org/2000/svg" width="2172" height="724" viewBox="0 0 2172 724">
<path style="fill:#103b8b; stroke:none;" d="M1065 163C1067.87 169.185 1073.3 174.056 1077.91 178.999C1080.05 181.287 1082.01 184.23 1085.04 185.397C1090.11 187.351 1097.62 186 1103 186C1101.33 180.332 1097.9 175.27 1095.25 170C1094.06 167.632 1092.95 164.52 1090.61 163.028C1088.45 161.648 1085.44 162.005 1083 162C1076.89 161.987 1071.05 162.235 1065 163M1699 186C1704.6 186 1712.65 187.477 1717.91 185.397C1720.86 184.228 1722.92 181.228 1725.04 178.999C1729.71 174.081 1736.13 168.654 1738 162L1721 162C1718.3 162.001 1714.79 161.499 1712.39 163.028C1710.05 164.522 1708.89 167.678 1707.58 170C1704.59 175.264 1701.82 180.646 1699 186M515 176C499.886 212.301 481.34 247.827 463.753 283C458.275 293.956 452.857 304.931 447.615 316C444.835 321.87 441.15 327.546 440 334L444 334C442.701 334.897 441.19 335.562 440.842 337.284C440.335 339.794 442.28 342.765 443.179 345C445.573 350.95 447.947 356.923 450 363C444.847 357.803 439.673 352.362 436 346L433 346C427.304 359.682 419.716 372.655 413.258 386C401.479 410.345 389.851 434.804 377.753 459C370.332 473.841 362.081 488.545 356 504L409 504C414.95 504 425.18 505.977 430.606 503.397C433.035 502.242 433.842 499.262 434.861 496.999C437.148 491.922 439.757 486.98 442.247 482C452.535 461.423 465.238 440.658 473 419L475 419C477.114 426.339 481.345 433.183 484.753 440C491.417 453.328 498.253 466.59 504.742 480C507.304 485.295 509.694 490.684 512.219 496C513.318 498.313 514.168 501.485 516.418 502.972C519.775 505.192 526.157 504 530 504L564 504L588 504C591.199 504 595.776 504.78 598.61 502.972C604.404 499.276 607.539 487.032 610.309 481C616.147 468.285 622.165 455.593 628.258 443C632.02 435.227 636.605 427.313 639 419C645.102 423.789 647.841 432.188 651.247 439C658.445 453.396 666.001 467.608 673.198 482C676.056 487.716 679.313 499.255 684.637 502.972C689.038 506.045 699.796 504 705 504L758 504C754.381 491.431 746.934 479.73 741.258 468C728.823 442.3 716.527 416.547 703.753 391C696.506 376.506 686.881 361.426 682 346L670 346C671.891 342.76 673.558 339.463 675 336C673.521 335.014 673.797 335 672 335C673.478 334.014 673.203 334 675 334C652.552 280.082 621.453 229.929 599 176L597 176C586.489 192.882 578.024 210.143 569.244 228C566.267 234.053 559.431 242.965 560.706 250C562.183 258.15 568.079 266.653 571.753 274C578.021 286.535 583.574 299.426 589.756 312C592.767 318.124 600.443 328.039 599.972 335C599.738 338.462 597.255 341.96 595.756 345C592.822 350.954 590.21 357.059 587.247 363C577.115 383.314 566.723 404.047 558 425C551.443 413.767 546.714 401.722 541.218 390C536.177 379.248 530.327 368.889 525.576 358C522.631 351.251 514.578 341.531 515.025 334C515.452 326.8 521.622 318.358 524.756 312C531.511 298.297 538.415 284.665 545.247 271C548.586 264.321 554.055 256.436 555.282 249C556.391 242.285 549.326 232.735 546.298 227C537.071 209.522 528.564 192.099 517 176L515 176M535 176C541.324 191.114 550.715 204.908 557 220L559 220C564.136 204.918 573.382 191.27 578 176L535 176M1163 195L1163 311L1190 311L1190 239C1195.63 244.158 1199.35 251.634 1203.5 258C1210.68 268.993 1217.77 280.039 1225 291C1228.67 296.564 1232.48 306.466 1238.33 309.972C1244.03 313.397 1256.45 311 1263 311L1263 240C1263 225.375 1263.83 210.512 1262 196L1236 196L1236 266C1224.52 250.214 1214.5 233.244 1203.67 217C1199.89 211.333 1195.43 200.667 1189.62 197.028C1183.17 192.989 1170.33 195 1163 195M813 196L813 217L849 217L849 287L849.001 303C849.016 305.209 848.639 308.417 850.603 309.972C852.492 311.468 855.764 310.995 858 311C864.063 311.012 869.969 310.125 876 310L876 217L912 217L912 196L813 196M925 196L925 311L952 311L952 263L998 263L998 310L1025 310L1025 196L998 196L998 241L952 241L952 196L925 196M1078 196C1075.69 205.986 1071.29 215.442 1067.68 225C1060.02 245.324 1051.78 265.483 1044.66 286C1041.79 294.246 1037.49 302.362 1036 311L1056 311C1058.56 310.995 1061.99 311.483 1063.91 309.397C1068.75 304.139 1066.67 292.975 1073.22 289.028C1076.17 287.253 1080.71 288 1084 288C1092.57 288 1101.46 287.303 1110 288.059C1120.28 288.97 1117.15 303.616 1122.84 309.397C1124.88 311.463 1128.36 310.995 1131 311L1151 311C1147.37 295.698 1140.24 280.595 1134.45 266C1129.48 253.468 1125.56 240.523 1120.55 228C1116.38 217.568 1111.54 206.973 1109 196L1078 196M1283 196L1283 311L1310 311L1310 263L1356 263L1356 298C1356 301.151 1354.78 307.739 1357.6 309.972C1359.49 311.468 1362.76 310.995 1365 311L1383 311L1383 196L1356 196L1356 241L1310 241L1310 196L1283 196M1436 196L1436 311L1463 311L1463 272C1479.28 272 1497.48 274.495 1512 265.532C1532.89 252.631 1534.13 218.207 1514 203.789C1502.82 195.785 1490.06 196 1477 196L1436 196M1542 196L1542 311L1569 310L1569 263L1614 263L1614 311L1641 311L1641 196L1614 196L1614 241L1569 241L1569 196L1542 196M1694 196C1691.66 205.855 1687.19 215.499 1683.68 225C1677.02 243.018 1670.36 261.025 1663.58 279C1659.71 289.247 1653.91 300.241 1652 311C1658.72 311 1665.32 311.077 1672 310.285C1674.36 310.006 1677.41 310.464 1679.58 309.397C1686.27 306.115 1683.24 293.132 1689.42 289.028C1691.98 287.328 1696.09 288 1699 288L1722 288C1724.94 288.001 1728.96 287.39 1731.3 289.603C1735.45 293.533 1737.19 304.521 1738 310L1767 310C1764.74 300.444 1760.42 291.217 1757.05 282C1750.32 263.589 1743.08 245.368 1736.23 227C1733.62 220.022 1731.21 212.972 1728.58 206C1727.56 203.303 1726.72 198.842 1724.3 197.028C1721.95 195.27 1717.74 196 1715 196L1694 196M1762 196L1762 217L1798 217L1798 311L1825 311L1825 217L1861 217L1861 196L1762 196z"/>
<path style="fill:#f9f9f9; stroke:none;" d="M1464.6 218.028C1461.28 220.657 1463 230.214 1463 234C1463 237.929 1461.46 246.15 1464.03 249.397C1465.89 251.75 1470.38 250.999 1473 251C1480.75 251.003 1489.57 252.111 1495.89 246.606C1503.63 239.868 1502.63 225.414 1493.98 220.005C1488.6 216.638 1482.08 217 1476 217C1472.88 217 1467.22 215.954 1464.6 218.028M1093 227C1088.62 239.955 1082 253.44 1080 267L1107 267C1105.65 257.844 1101.66 248.646 1098.42 240C1096.78 235.606 1095.83 230.779 1093 227M1709 227C1704.85 239.743 1697.1 253.636 1696 267L1723 267C1722.29 253.357 1713.32 240.485 1711 227L1709 227z"/>
<path style="fill:#103b8b; stroke:none;" d="M846 455L830 455C830.504 479.398 851.621 488.034 873 488C886.959 487.978 902.081 482.334 906.895 468C907.884 465.055 907.998 462.079 907.998 459C907.998 437.408 888.089 432.293 871 427.139C863.137 424.767 851.895 421.478 850.229 412C848.573 402.579 856.832 396.775 865 395.016C877.463 392.333 890.685 399.601 891 413L907 413C906.526 390.159 886.974 381.968 867 382C853.579 382.022 839.207 388.417 834.889 402C833.963 404.912 833.08 407.919 833.08 411C833.082 429.994 853.784 437.672 869 441.999C878.299 444.644 891.176 448.209 891.782 460C892.279 469.674 881.142 474.773 873 474.985C859.019 475.35 847.264 470.453 846 455M919 383L919 396L953 396L954 487L969 487L969 396L1004 396L1004 383L919 383M1022 383L1022 487L1092 487L1092 474L1038 474L1038 441L1072 441C1075.15 441 1081.74 442.216 1083.97 439.397C1086.24 436.53 1085.77 428.48 1081.85 427.318C1077.74 426.096 1072.26 427 1068 427L1038 427L1038 396L1092 396L1092 383L1022 383M1112 383L1112 487L1182 487C1182 483.82 1183.22 477.262 1180.4 475.028C1177.3 472.577 1169.73 474 1166 474L1128 474L1128 441L1158 441C1162.26 441 1167.74 441.904 1171.85 440.682C1175.77 439.52 1176.24 431.47 1173.97 428.603C1171.74 425.784 1165.15 427 1162 427L1128 427L1128 396L1181 396L1181 383L1112 383M1203 383L1203 487L1269 487L1269 474L1219 474L1219 383L1203 383z"/>
<path style="fill:#f9f9f9; stroke:none;" d="M557 451C555.162 455.416 553.141 460.084 550.363 464C548.536 466.577 545.599 468.839 544.777 472C543.911 475.33 545.722 479.599 546 483C551.88 479.148 555.341 468.387 558 462C561.041 467.21 563.124 475.426 568 479C568 475.271 568.618 470.883 567.501 467.285C565.746 461.637 561.308 456.542 559 451L557 451z"/>
<path style="fill:#103b8b; stroke:none;" d="M882 556C885.085 555.772 887.656 553.942 890.576 553.692C893.209 553.467 896.301 555.609 899 556C894.665 546.737 886.335 546.737 882 556M1067 556C1072.66 555.574 1075.81 552.506 1079 548C1072.59 548.076 1069.76 550.211 1067 556M1241 556C1244.74 555.72 1246.6 554.888 1249 552C1251.98 554.526 1254.09 555.708 1258 556C1253.19 547.297 1245.52 546.336 1241 556M1379 556C1382.08 555.773 1385.02 553.938 1388 553.938C1390.98 553.938 1393.92 555.773 1397 556C1391.93 547.157 1384.07 547.156 1379 556M1510 556C1513.08 555.773 1516.02 553.938 1519 553.938C1521.98 553.938 1524.92 555.773 1528 556C1522.28 547.906 1514.82 545.884 1510 556M1670 557C1669.66 561.454 1668.38 563.73 1664 565L1664 559L1657 559L1657 574C1657 577.662 1657.1 581.34 1656.98 585C1656.72 593.37 1646.86 600.464 1640.74 591.867C1636.89 586.45 1639 575.352 1639 569C1639 562.781 1638.99 559.229 1632 559C1632 569.108 1628.75 586.236 1634.73 594.956C1640.99 604.101 1657.62 602.698 1662.54 592.996C1665.86 586.446 1664 576.172 1664 569C1672.31 568.753 1673.98 564.671 1674 557L1670 557M835 559C835.606 566.778 842.893 565 849 565L849 601L855 601L855 565L869 565L869 559L835 559M885 559.649C863.363 566.186 871.31 607.81 896 600.351C917.586 593.83 909.832 552.147 885 559.649M916 559L916 601L923 601L923 572C927.996 577.474 931.953 583.774 935.95 590C939.896 596.147 942.212 600.907 950 601L950 559L943 559L943 589C939.045 582.562 934.729 576.379 930.681 570C928.667 566.827 926.622 562.154 923.402 560.028C921.305 558.644 918.385 559.008 916 559M972 559L972 565L985 565L985 601C986.993 600.935 989.584 601.174 990.974 599.397C992.765 597.107 992 592.706 992 590L992 565L1005 565L1005 559L972 559M1012 559L1012 601L1019 601L1019 582L1039 582L1039 601C1041.32 600.924 1044.2 601.14 1045.4 598.682C1046.93 595.542 1046 590.406 1046 587L1046 559L1039 559L1039 577L1019 577L1019 559L1012 559M1055 559L1055 589C1055 591.98 1053.93 597.853 1056.6 599.972C1058.49 601.468 1061.76 600.995 1064 601L1083 601L1083 595L1063 595L1063 582L1080 582L1080 577L1062 577L1062 565L1083 564L1083 559L1055 559M1090 559L1090 587C1090 590.406 1089.07 595.542 1090.6 598.682C1091.8 601.14 1094.68 600.924 1097 601L1097 585C1103.08 585 1110.51 586.121 1115.98 582.911C1124.18 578.099 1123.6 566.78 1115.98 561.728C1109 557.095 1097.96 559 1090 559M1151 579C1142.47 583.533 1140.15 594.807 1150 599.821C1155.96 602.852 1161.15 599.112 1167 599.178C1170.35 599.216 1173.54 600.891 1177 601C1175.82 597.943 1174.52 596.096 1172 594C1174.76 589.873 1175.78 585.938 1176 581L1171 581L1169 588C1165.18 585.253 1162.49 581.979 1160 578C1162.23 576.95 1164.01 575.957 1165.57 573.941C1177.69 558.303 1143.75 552.127 1147.41 571C1147.96 573.864 1149.67 576.45 1151 579M1195 559C1196.64 568.549 1201.51 577.956 1204.94 587C1206.38 590.805 1207.22 596.355 1210.07 599.397C1211.84 601.283 1214.65 600.972 1217 601C1220.9 586.723 1227.26 573.015 1232 559L1224 559C1221.41 570.186 1216.59 580.804 1214 592C1210.22 584.82 1208.39 576.637 1205.69 569C1204.71 566.205 1204.07 561.855 1201.49 560.028C1199.68 558.745 1197.09 559.025 1195 559M1231 601C1237.49 600.784 1239.1 597.035 1240 591C1244.59 591 1252.62 589.458 1256.61 592.028C1261.99 595.497 1260.19 600.744 1268 601C1265.42 590.092 1260.36 579.397 1256.2 569C1254.96 565.901 1253.78 560.151 1249.91 559.377C1245.21 558.435 1243.51 564.706 1242.34 568C1238.58 578.612 1232.13 589.713 1231 601M1267 559L1267 564L1280 564L1280 601L1287 601L1287 564L1300 564L1300 559L1267 559M1323 559L1323 601L1349 601L1349 596L1330 596L1330 559L1323 559M1357 559L1357 601C1359.32 600.924 1362.2 601.14 1363.4 598.682C1364.93 595.542 1364 590.406 1364 587L1364 559L1357 559M1374 559L1374 601L1402 601L1402 595L1381 595L1381 582L1399 582L1399 577L1381 577L1381 565L1402 564L1402 559L1374 559M1408 559C1408 569.103 1405.05 584.907 1410.14 593.985C1415.47 603.483 1433.37 603.715 1438.68 593.957C1440.61 590.424 1440 585.875 1440 582L1440 559L1434 559L1434 579C1434 582.61 1434.37 586.655 1432.68 589.981C1429.8 595.672 1422.16 597.661 1417.65 592.606C1414.8 589.404 1415.01 585.005 1415 581L1415 559L1408 559M1462 559C1465.18 564.726 1473.37 573.297 1473.36 580C1473.36 587.002 1464.65 594.608 1462 601C1472.44 600.963 1474.01 593.235 1480 586C1483.54 593.565 1486.92 600.893 1496 601C1493.88 594.315 1485.18 586.938 1485.35 580C1485.52 572.863 1493.83 565.852 1496 559C1486.92 559.107 1483.54 566.435 1480 574C1474.29 566.514 1472.45 559.037 1462 559M1500 601C1506.98 600.772 1508.89 596.438 1510 590C1514.39 590 1521.87 588.573 1525.7 591.028C1531.32 594.638 1528.58 600.724 1537 601C1534.71 589.923 1529.61 579.613 1525.82 569C1524.69 565.844 1523.2 559.296 1518.94 559.296C1514.29 559.296 1512.99 565.63 1511.58 569C1507.26 579.287 1502.52 590.116 1500 601M1537 559C1538.65 568.27 1545.92 575.269 1549.03 584C1550.67 588.602 1548.51 594.406 1550.6 598.682C1551.8 601.14 1554.68 600.924 1557 601C1557 595.837 1556.21 589.936 1557.97 585C1561.23 575.848 1568.29 568.424 1571 559C1559.53 559.136 1559.12 571.413 1553 579C1550.67 570.919 1546.48 559.31 1537 559M1593 559L1593 601C1600.59 601 1609.26 602.239 1616 598.005C1626.82 591.208 1628.74 570.717 1617.91 562.854C1610.92 557.785 1601.11 559 1593 559M1682 601L1682 571C1689.43 580.664 1696.38 600.839 1710 601L1710 559L1703 559L1703 589C1699.25 584.605 1696.16 579.75 1692.88 575C1690.85 572.047 1688.99 568.981 1687 566.001C1685.15 563.241 1679.86 555.815 1676.03 560.604C1673.95 563.203 1675 568.893 1675 572L1675 591C1675 593.48 1674.38 597.295 1676.03 599.397C1677.42 601.174 1680.01 600.935 1682 601M1752 580L1736 580L1736 585L1745 585C1744.99 587.426 1745.37 590.466 1743.97 592.606C1738.1 601.616 1726.99 592.068 1725.62 585C1724.61 579.789 1724.19 573.484 1727.57 569.044C1733.08 561.808 1742.13 563.763 1745 572L1751 572C1750.32 559.583 1734.68 554.917 1725.04 561.703C1718.4 566.381 1717.71 574.599 1718.04 582C1718.24 586.633 1719.09 591.368 1722.23 594.956C1728.32 601.933 1743.79 604.033 1750.4 596.291C1753.56 592.587 1752 584.569 1752 580z"/>
<path style="fill:#f9f9f9; stroke:none;" d="M887.015 564.862C874.812 569.806 878.142 601.065 893.995 595.103C902.279 591.987 903.227 577.022 899.682 570.019C897.415 565.539 891.823 562.914 887.015 564.862M1097 564L1097 580C1101.29 580 1107.04 580.956 1110.94 578.821C1116.19 575.948 1116.01 568.339 1110.89 565.457C1106.88 563.201 1101.42 564 1097 564M1156.22 564.762C1152.03 566.535 1153.02 574.926 1158 573.503C1163.99 571.793 1162.7 562.028 1156.22 564.762M1600 565L1600 595C1604.11 595 1609.32 595.782 1612.87 593.258C1619.93 588.239 1620.02 571.692 1612.89 566.742C1609.29 564.242 1604.15 565 1600 565M1249 568C1246.6 573.395 1244 579.171 1243 585L1256 585C1254.09 579.353 1252.3 572.975 1249 568M1518 568L1512 585L1525 585C1523.68 579.423 1521.67 572.42 1518 568M1164 594C1163.12 592.1 1162.28 590.621 1160.94 588.98C1159.73 587.498 1158.36 585.688 1156.72 584.662C1152.94 582.309 1149.95 586.355 1150.21 589.985C1150.53 594.532 1154.95 596.257 1158.98 595.782C1160.88 595.557 1162.3 594.816 1164 594z"/>
<path style="fill:#103b8b; stroke:none;" d="M1247.62 605.086C1245.03 606.933 1247.9 611.245 1250.68 609.825C1254.11 608.078 1250.57 602.976 1247.62 605.086M1386.33 605.083C1382.81 607.126 1386.5 611.471 1389.67 609.713C1393.19 607.759 1389.48 603.253 1386.33 605.083M1646.6 605.043C1643.39 607.441 1647.4 612.238 1650.38 609.357C1653.09 606.744 1649.51 602.875 1646.6 605.043z"/>
</svg>
